<svg xmlns="http://www.w3.org/2000/svg" width="322" height="53" viewBox="0 0 322 53" fill="none"><path d="M119.454 28H120.984L118.167 21.7H116.727L113.919 28H115.413L115.971 26.65H118.896L119.454 28ZM116.439 25.543L117.438 23.131L118.437 25.543H116.439ZM124.305 28.108C126.096 28.108 127.158 27.082 127.158 25.228V21.7H125.718V25.174C125.718 26.371 125.205 26.866 124.314 26.866C123.432 26.866 122.91 26.371 122.91 25.174V21.7H121.452V25.228C121.452 27.082 122.514 28.108 124.305 28.108ZM129.798 28H131.256V22.888H133.272V21.7H127.782V22.888H129.798V28ZM137.02 28.108C139 28.108 140.467 26.731 140.467 24.85C140.467 22.969 139 21.592 137.02 21.592C135.031 21.592 133.573 22.978 133.573 24.85C133.573 26.722 135.031 28.108 137.02 28.108ZM137.02 26.866C135.895 26.866 135.049 26.047 135.049 24.85C135.049 23.653 135.895 22.834 137.02 22.834C138.145 22.834 138.991 23.653 138.991 24.85C138.991 26.047 138.145 26.866 137.02 26.866ZM147.142 28L145.729 25.975C146.548 25.624 147.025 24.931 147.025 23.986C147.025 22.573 145.972 21.7 144.289 21.7H141.562V28H143.02V26.245H144.289H144.361L145.576 28H147.142ZM145.549 23.986C145.549 24.67 145.099 25.084 144.208 25.084H143.02V22.888H144.208C145.099 22.888 145.549 23.293 145.549 23.986ZM148.181 28H149.639V21.7H148.181V28ZM152.439 28H153.897V22.888H155.913V21.7H150.423V22.888H152.439V28ZM160.99 19.891H159.478L158.263 21.187H159.361L160.99 19.891ZM158.146 26.83V25.372H161.071V24.238H158.146V22.87H161.458V21.7H156.697V28H161.575V26.83H158.146ZM165.284 28H168.146C170.207 28 171.62 26.758 171.62 24.85C171.62 22.942 170.207 21.7 168.146 21.7H165.284V28ZM166.742 26.803V22.897H168.074C169.325 22.897 170.144 23.644 170.144 24.85C170.144 26.056 169.325 26.803 168.074 26.803H166.742ZM174.169 26.83V25.372H177.094V24.238H174.169V22.87H177.481V21.7H172.72V28H177.598V26.83H174.169ZM186.887 28L185.474 25.975C186.293 25.624 186.77 24.931 186.77 23.986C186.77 22.573 185.717 21.7 184.034 21.7H181.307V28H182.765V26.245H184.034H184.106L185.321 28H186.887ZM185.294 23.986C185.294 24.67 184.844 25.084 183.953 25.084H182.765V22.888H183.953C184.844 22.888 185.294 23.293 185.294 23.986ZM192.218 19.891H190.706L189.491 21.187H190.589L192.218 19.891ZM189.374 26.83V25.372H192.299V24.238H189.374V22.87H192.686V21.7H187.925V28H192.803V26.83H189.374ZM198.202 26.596C197.833 26.794 197.464 26.866 197.068 26.866C195.862 26.866 195.025 26.029 195.025 24.85C195.025 23.653 195.862 22.834 197.086 22.834C197.725 22.834 198.256 23.059 198.715 23.545L199.651 22.681C199.039 21.97 198.121 21.592 197.014 21.592C195.007 21.592 193.549 22.951 193.549 24.85C193.549 26.749 195.007 28.108 196.987 28.108C197.887 28.108 198.841 27.829 199.534 27.307V24.751H198.202V26.596ZM203.688 28.108C205.479 28.108 206.541 27.082 206.541 25.228V21.7H205.101V25.174C205.101 26.371 204.588 26.866 203.697 26.866C202.815 26.866 202.293 26.371 202.293 25.174V21.7H200.835V25.228C200.835 27.082 201.897 28.108 203.688 28.108ZM207.981 28H212.598V26.812H209.439V21.7H207.981V28ZM218.173 28H219.703L216.886 21.7H215.446L212.638 28H214.132L214.69 26.65H217.615L218.173 28ZM215.158 25.543L216.157 23.131L217.156 25.543H215.158ZM221.345 28H222.803V22.888H224.819V21.7H219.329V22.888H221.345V28ZM225.603 28H227.061V21.7H225.603V28ZM231.608 28.108C233.588 28.108 235.055 26.731 235.055 24.85C235.055 22.969 233.588 21.592 231.608 21.592C229.619 21.592 228.161 22.978 228.161 24.85C228.161 26.722 229.619 28.108 231.608 28.108ZM231.608 26.866C230.483 26.866 229.637 26.047 229.637 24.85C229.637 23.653 230.483 22.834 231.608 22.834C232.733 22.834 233.579 23.653 233.579 24.85C233.579 26.047 232.733 26.866 231.608 26.866ZM240.488 21.7V25.525L237.356 21.7H236.15V28H237.59V24.175L240.731 28H241.928V21.7H240.488ZM245.968 28H248.83C250.891 28 252.304 26.758 252.304 24.85C252.304 22.942 250.891 21.7 248.83 21.7H245.968V28ZM247.426 26.803V22.897H248.758C250.009 22.897 250.828 23.644 250.828 24.85C250.828 26.056 250.009 26.803 248.758 26.803H247.426ZM254.852 26.83V25.372H257.777V24.238H254.852V22.87H258.164V21.7H253.403V28H258.281V26.83H254.852ZM261.99 28H266.607V26.812H263.448V21.7H261.99V28ZM272.182 28H273.712L270.895 21.7H269.455L266.647 28H268.141L268.699 26.65H271.624L272.182 28ZM269.167 25.543L270.166 23.131L271.165 25.543H269.167ZM279.641 21.7H276.914V28H278.372V26.263H279.641C281.324 26.263 282.377 25.39 282.377 23.986C282.377 22.573 281.324 21.7 279.641 21.7ZM279.56 25.075H278.372V22.888H279.56C280.451 22.888 280.901 23.293 280.901 23.986C280.901 24.67 280.451 25.075 279.56 25.075ZM286.557 28.108C288.537 28.108 290.004 26.731 290.004 24.85C290.004 22.969 288.537 21.592 286.557 21.592C284.568 21.592 283.11 22.978 283.11 24.85C283.11 26.722 284.568 28.108 286.557 28.108ZM286.557 26.866C285.432 26.866 284.586 26.047 284.586 24.85C284.586 23.653 285.432 22.834 286.557 22.834C287.682 22.834 288.528 23.653 288.528 24.85C288.528 26.047 287.682 26.866 286.557 26.866ZM293.17 28.108C294.97 28.108 295.843 27.208 295.843 26.155C295.843 23.842 292.18 24.643 292.18 23.482C292.18 23.086 292.513 22.762 293.377 22.762C293.935 22.762 294.538 22.924 295.123 23.257L295.573 22.15C294.988 21.781 294.178 21.592 293.386 21.592C291.595 21.592 290.731 22.483 290.731 23.554C290.731 25.894 294.394 25.084 294.394 26.263C294.394 26.65 294.043 26.938 293.179 26.938C292.423 26.938 291.631 26.668 291.1 26.281L290.605 27.379C291.163 27.811 292.171 28.108 293.17 28.108ZM298.056 28H299.514V22.888H301.53V21.7H296.04V22.888H298.056V28ZM303.763 26.83V25.372H306.688V24.238H303.763V22.87H307.075V21.7H302.314V28H307.192V26.83H303.763ZM116.196 39.83V38.372H119.121V37.238H116.196V35.87H119.508V34.7H114.747V41H119.625V39.83H116.196ZM122.09 41H123.548V35.888H125.564V34.7H120.074V35.888H122.09V41ZM128.897 41H131.759C133.82 41 135.233 39.758 135.233 37.85C135.233 35.942 133.82 34.7 131.759 34.7H128.897V41ZM130.355 39.803V35.897H131.687C132.938 35.897 133.757 36.644 133.757 37.85C133.757 39.056 132.938 39.803 131.687 39.803H130.355ZM137.782 39.83V38.372H140.707V37.238H137.782V35.87H141.094V34.7H136.333V41H141.211V39.83H137.782ZM144.441 41.108C146.241 41.108 147.114 40.208 147.114 39.155C147.114 36.842 143.451 37.643 143.451 36.482C143.451 36.086 143.784 35.762 144.648 35.762C145.206 35.762 145.809 35.924 146.394 36.257L146.844 35.15C146.259 34.781 145.449 34.592 144.657 34.592C142.866 34.592 142.002 35.483 142.002 36.554C142.002 38.894 145.665 38.084 145.665 39.263C145.665 39.65 145.314 39.938 144.45 39.938C143.694 39.938 142.902 39.668 142.371 39.281L141.876 40.379C142.434 40.811 143.442 41.108 144.441 41.108ZM151.964 41H153.422V35.888H155.438V34.7H149.948V35.888H151.964V41ZM160.516 32.891H159.004L157.789 34.187H158.887L160.516 32.891ZM157.672 39.83V38.372H160.597V37.238H157.672V35.87H160.984V34.7H156.223V41H161.101V39.83H157.672ZM162.261 41H166.878V39.812H163.719V34.7H162.261V41ZM171.985 32.891H170.473L169.258 34.187H170.356L171.985 32.891ZM169.141 39.83V38.372H172.066V37.238H169.141V35.87H172.453V34.7H167.692V41H172.57V39.83H169.141ZM176.728 41.108C177.826 41.108 178.735 40.712 179.329 39.983L178.393 39.119C177.97 39.614 177.439 39.866 176.809 39.866C175.63 39.866 174.793 39.038 174.793 37.85C174.793 36.662 175.63 35.834 176.809 35.834C177.439 35.834 177.97 36.086 178.393 36.572L179.329 35.708C178.735 34.988 177.826 34.592 176.737 34.592C174.775 34.592 173.317 35.951 173.317 37.85C173.317 39.749 174.775 41.108 176.728 41.108ZM183.233 41.108C185.213 41.108 186.68 39.731 186.68 37.85C186.68 35.969 185.213 34.592 183.233 34.592C181.244 34.592 179.786 35.978 179.786 37.85C179.786 39.722 181.244 41.108 183.233 41.108ZM183.233 39.866C182.108 39.866 181.262 39.047 181.262 37.85C181.262 36.653 182.108 35.834 183.233 35.834C184.358 35.834 185.204 36.653 185.204 37.85C185.204 39.047 184.358 39.866 183.233 39.866ZM194.876 41L194.858 34.7H193.661L191.339 38.615L188.981 34.7H187.775V41H189.143V37.301L190.988 40.334H191.645L193.499 37.22L193.508 41H194.876ZM203.472 41L203.454 34.7H202.257L199.935 38.615L197.577 34.7H196.371V41H197.739V37.301L199.584 40.334H200.241L202.095 37.22L202.104 41H203.472ZM207.766 41.108C209.557 41.108 210.619 40.082 210.619 38.228V34.7H209.179V38.174C209.179 39.371 208.666 39.866 207.775 39.866C206.893 39.866 206.371 39.371 206.371 38.174V34.7H204.913V38.228C204.913 40.082 205.975 41.108 207.766 41.108ZM216.397 34.7V38.525L213.266 34.7H212.06V41H213.5V37.175L216.641 41H217.838V34.7H216.397ZM219.328 41H220.786V34.7H219.328V41ZM225.296 41.108C226.394 41.108 227.303 40.712 227.897 39.983L226.961 39.119C226.538 39.614 226.007 39.866 225.377 39.866C224.198 39.866 223.361 39.038 223.361 37.85C223.361 36.662 224.198 35.834 225.377 35.834C226.007 35.834 226.538 36.086 226.961 36.572L227.897 35.708C227.303 34.988 226.394 34.592 225.305 34.592C223.343 34.592 221.885 35.951 221.885 37.85C221.885 39.749 223.343 41.108 225.296 41.108ZM233.466 41H234.996L232.179 34.7H230.739L227.931 41H229.425L229.983 39.65H232.908L233.466 41ZM230.451 38.543L231.45 36.131L232.449 38.543H230.451ZM236.638 41H238.096V35.888H240.112V34.7H234.622V35.888H236.638V41ZM240.896 41H242.354V34.7H240.896V41ZM246.901 41.108C248.881 41.108 250.348 39.731 250.348 37.85C250.348 35.969 248.881 34.592 246.901 34.592C244.912 34.592 243.454 35.978 243.454 37.85C243.454 39.722 244.912 41.108 246.901 41.108ZM246.901 39.866C245.776 39.866 244.93 39.047 244.93 37.85C244.93 36.653 245.776 35.834 246.901 35.834C248.026 35.834 248.872 36.653 248.872 37.85C248.872 39.047 248.026 39.866 246.901 39.866ZM255.781 34.7V38.525L252.649 34.7H251.443V41H252.883V37.175L256.024 41H257.221V34.7H255.781ZM260.782 41.108C262.582 41.108 263.455 40.208 263.455 39.155C263.455 36.842 259.792 37.643 259.792 36.482C259.792 36.086 260.125 35.762 260.989 35.762C261.547 35.762 262.15 35.924 262.735 36.257L263.185 35.15C262.6 34.781 261.79 34.592 260.998 34.592C259.207 34.592 258.343 35.483 258.343 36.554C258.343 38.894 262.006 38.084 262.006 39.263C262.006 39.65 261.655 39.938 260.791 39.938C260.035 39.938 259.243 39.668 258.712 39.281L258.217 40.379C258.775 40.811 259.783 41.108 260.782 41.108ZM267 41H269.862C271.923 41 273.336 39.758 273.336 37.85C273.336 35.942 271.923 34.7 269.862 34.7H267V41ZM268.458 39.803V35.897H269.79C271.041 35.897 271.86 36.644 271.86 37.85C271.86 39.056 271.041 39.803 269.79 39.803H268.458ZM277.234 41.108C279.025 41.108 280.087 40.082 280.087 38.228V34.7H278.647V38.174C278.647 39.371 278.134 39.866 277.243 39.866C276.361 39.866 275.839 39.371 275.839 38.174V34.7H274.381V38.228C274.381 40.082 275.443 41.108 277.234 41.108ZM287.092 41.108C288.19 41.108 289.099 40.712 289.693 39.983L288.757 39.119C288.334 39.614 287.803 39.866 287.173 39.866C285.994 39.866 285.157 39.038 285.157 37.85C285.157 36.662 285.994 35.834 287.173 35.834C287.803 35.834 288.334 36.086 288.757 36.572L289.693 35.708C289.099 34.988 288.19 34.592 287.101 34.592C285.139 34.592 283.681 35.951 283.681 37.85C283.681 39.749 285.139 41.108 287.092 41.108ZM293.597 41.108C295.577 41.108 297.044 39.731 297.044 37.85C297.044 35.969 295.577 34.592 293.597 34.592C291.608 34.592 290.15 35.978 290.15 37.85C290.15 39.722 291.608 41.108 293.597 41.108ZM293.597 39.866C292.472 39.866 291.626 39.047 291.626 37.85C291.626 36.653 292.472 35.834 293.597 35.834C294.722 35.834 295.568 36.653 295.568 37.85C295.568 39.047 294.722 39.866 293.597 39.866ZM302.478 34.7V38.525L299.346 34.7H298.14V41H299.58V37.175L302.721 41H303.918V34.7H302.478ZM309.665 39.596C309.296 39.794 308.927 39.866 308.531 39.866C307.325 39.866 306.488 39.029 306.488 37.85C306.488 36.653 307.325 35.834 308.549 35.834C309.188 35.834 309.719 36.059 310.178 36.545L311.114 35.681C310.502 34.97 309.584 34.592 308.477 34.592C306.47 34.592 305.012 35.951 305.012 37.85C305.012 39.749 306.47 41.108 308.45 41.108C309.35 41.108 310.304 40.829 310.997 40.307V37.751H309.665V39.596ZM315.402 41.108C317.382 41.108 318.849 39.731 318.849 37.85C318.849 35.969 317.382 34.592 315.402 34.592C313.413 34.592 311.955 35.978 311.955 37.85C311.955 39.722 313.413 41.108 315.402 41.108ZM315.402 39.866C314.277 39.866 313.431 39.047 313.431 37.85C313.431 36.653 314.277 35.834 315.402 35.834C316.527 35.834 317.373 36.653 317.373 37.85C317.373 39.047 316.527 39.866 315.402 39.866Z" fill="#5D5F60"></path><path d="M64.5115 43.3598C64.5115 44.9713 64.5446 46.48 64.4879 47.9793C64.4543 48.3896 64.2753 48.7751 63.9823 49.0676C62.9097 50.0672 61.7757 51.0013 60.5709 52.0429C60.5333 51.8281 60.508 51.6114 60.4953 51.3937C60.4953 45.7357 60.4953 40.0778 60.4953 34.4198C60.445 32.9956 60.9118 31.6005 61.8113 30.4869C62.7108 29.3732 63.9837 28.6144 65.3998 28.3477C67.4783 27.8735 69.6387 27.8735 71.7171 28.3477C74.4718 28.9782 76.272 30.912 76.5319 33.6818C76.6736 35.1872 76.6736 36.7024 76.5319 38.2079C76.2484 41.2112 74.1977 43.2057 71.0462 43.6961C68.8687 44.0567 66.6376 43.9387 64.5115 43.3505V43.3598ZM72.5912 36.0219C72.5912 36.0219 72.5912 34.7421 72.5393 34.1022C72.4448 32.4814 71.7077 31.5285 70.1768 31.351C69.0225 31.2466 67.8604 31.2592 66.7086 31.3884C66.1782 31.4127 65.6764 31.6331 65.3027 32.006C64.9289 32.3789 64.7106 32.877 64.6911 33.4015C64.5611 35.079 64.5611 36.7639 64.6911 38.4414C64.7025 38.9799 64.9209 39.4939 65.3017 39.879C65.6826 40.2642 66.1974 40.4917 66.7417 40.5153C67.8934 40.6445 69.0555 40.657 70.2099 40.5526C71.6274 40.3985 72.2369 39.7212 72.4731 38.3153C72.5631 37.554 72.6105 36.7884 72.6149 36.0219" fill="#4067B4"></path><path d="M101.414 37.5867H105.402C105.487 39.7773 104.159 42.2108 102.052 43.0562C100.589 43.6642 99.0191 43.9774 97.4328 43.9774C95.8466 43.9774 94.2763 43.6642 92.8142 43.0562C90.7399 42.2061 89.6295 40.4452 89.4358 38.2593C89.2917 36.729 89.2917 35.1888 89.4358 33.6585C89.7146 30.7625 91.6235 28.8381 94.6333 28.2636C96.6224 27.8702 98.674 27.9052 100.648 28.3664C102.01 28.6581 103.227 29.4099 104.09 30.4925C104.952 31.5751 105.406 32.9208 105.373 34.2984H101.385C101.385 34.2984 101.229 31.3557 99.0228 31.2997C98.3991 31.2997 96.4619 31.2997 95.7909 31.2997C94.1797 31.5145 93.6269 32.1544 93.4851 33.7472C93.3457 35.2496 93.3457 36.7615 93.4851 38.2639C93.6221 39.7212 94.3167 40.3938 95.7578 40.5667C96.8358 40.6974 97.9259 40.6974 99.0039 40.5667C100.492 40.3798 101.083 39.6792 101.324 38.1985C101.36 37.9982 101.378 37.7949 101.376 37.5913" fill="#4067B4"></path><path d="M82.9863 21.6777V27.988H85.1645C85.1645 27.988 86.582 30.6084 87.0025 31.2063H82.9863V32.4907C82.9863 34.0788 82.9863 35.6669 82.9863 37.255C82.9863 39.6605 83.8415 40.5526 86.2607 40.6834C86.4875 40.6834 86.7096 40.7255 86.9694 40.7535V43.7615C83.317 44.8218 79.0645 41.7998 78.9842 37.9603C78.885 33.3548 78.9511 28.7447 78.9606 24.1346C78.9576 24.0281 78.9776 23.9223 79.0191 23.8241C79.0607 23.7258 79.1229 23.6374 79.2015 23.5647C80.4111 22.9342 81.6396 22.3503 82.9815 21.6964" fill="#4067B4"></path><path d="M57.906 27.988V30.926C57.2643 30.8763 56.6198 30.8763 55.9782 30.926C54.3528 31.1596 53.6818 31.8929 53.6582 33.5604C53.6298 35.5035 53.6582 40.0155 53.6582 40.0155C53.6582 40.0155 51.2059 42.9628 50.0861 44.1913V34.0275C50.0861 30.5664 52.0422 28.4224 55.5387 28.0674C56.1577 28.0067 57.9012 27.9694 57.9012 27.9694" fill="#4067B4"></path><path d="M53.4975 3.78836C53.3417 3.68412 53.1735 3.5994 52.9966 3.53614C52.7548 3.45462 52.5009 3.41358 52.2454 3.4147C51.7107 3.41611 51.1929 3.59965 50.7792 3.9344C50.3655 4.26914 50.0811 4.73463 49.974 5.25243C49.8669 5.77024 49.9436 6.30871 50.1913 6.77712C50.4389 7.24553 50.8423 7.61525 51.3335 7.82399C34.2809 41.3561 -0.225687 44.0418 0.00111253 44.0605C16.9591 43.1544 36.3836 38.4835 51.5035 8.47323L51.7587 7.96411C51.9144 7.99433 52.0726 8.00997 52.2312 8.01082C52.7263 8.00397 53.2064 7.841 53.6013 7.54565C53.9962 7.2503 54.2854 6.838 54.4267 6.36883C54.568 5.89967 54.5541 5.39815 54.387 4.93735C54.2198 4.47655 53.9082 4.08055 53.4975 3.80705" fill="#CC002B"></path><path d="M18.7027 41.3233L16.0189 44.1258C19.7564 42.9347 20.966 42.8507 20.966 42.8507L23.3899 39.4503C21.8613 40.1529 20.2968 40.7765 18.7027 41.3186" fill="#4067B4"></path><path d="M36.0386 30.9634C36.4166 32.0563 38.0987 36.3956 41.9307 42.0006C41.9307 42.0006 43.7073 42.2902 47.7094 44.1305C42.9608 39.7166 41.4251 36.4423 37.957 29.1184C37.338 29.7396 36.6623 30.3935 36.0386 30.9867" fill="#4067B4"></path><path d="M26.0736 34.3311C25.9508 33.9808 25.6956 33.2521 25.6011 33.1073C25.6011 33.1073 26.3666 31.65 26.7398 30.8513C26.7398 30.8513 27.1178 31.949 27.6281 33.3642C28.3841 32.8971 29.1449 32.3833 29.9103 31.8555C29.0787 29.5201 28.644 28.2356 28.3558 27.1847C28.3558 27.1847 29.1307 25.4098 29.5512 24.2934C29.9812 25.9936 31.5971 30.5897 31.5971 30.5897L32.3295 30.1227L33.4635 29.2399C32.3728 26.2538 31.481 23.2003 30.7939 20.099C31.0868 19.034 31.3798 18.0251 31.6916 16.6519C32.5988 20.7436 33.3029 23.9805 34.8574 28.1048C35.5189 27.5537 36.1772 26.9807 36.8324 26.386C35.2782 22.2714 34.094 18.0294 33.2934 13.7093C32.8445 11.5505 32.5289 9.36671 32.3484 7.17005C32.1122 4.70851 32.0649 2.85885 32.0649 1.84994C32.0271 1.26608 31.9893 0.677554 31.9468 0.0983679C31.5924 -0.0464287 31.4034 -0.0184035 31.2947 0.0983679C31.1601 7.20596 29.9807 14.2564 27.7935 21.0285C26.0399 26.9038 23.3885 32.4797 19.9311 37.5633L20.3516 37.3905C22.1991 36.5077 24.1316 35.4941 26.0736 34.3311Z" fill="#4067B4"></path></svg>