<?xml version="1.0" encoding="UTF-8" standalone="no" ?>
<!DOCTYPE svg PUBLIC "-//W3C//DTD SVG 1.1//EN" "http://www.w3.org/Graphics/SVG/1.1/DTD/svg11.dtd">
<svg xmlns="http://www.w3.org/2000/svg" xmlns:xlink="http://www.w3.org/1999/xlink" version="1.1" width="1080" height="1080" viewBox="0 0 1080 1080" xml:space="preserve">
<desc>Created with Fabric.js 5.2.4</desc>
<defs>
</defs>
<rect x="0" y="0" width="100%" height="100%" fill="transparent"></rect>
<g transform="matrix(0 0 0 0 0 0)" id="37630d68-501e-4086-9ab1-15d135d75eef"  >
</g>
<g transform="matrix(1 0 0 1 540 540)" id="3ef549da-0437-4588-8d31-f0d5abb15fc5"  >
<rect style="stroke: none; stroke-width: 1; stroke-dasharray: none; stroke-linecap: butt; stroke-dashoffset: 0; stroke-linejoin: miter; stroke-miterlimit: 4; fill: rgb(255,255,255); fill-rule: nonzero; opacity: 1; visibility: hidden;" vector-effect="non-scaling-stroke"  x="-540" y="-540" rx="0" ry="0" width="1080" height="1080" />
</g>
<g transform="matrix(10.15 0 0 10.15 1581.49 540)"  >
<g style="" vector-effect="non-scaling-stroke"   >
		<g transform="matrix(1 0 0 1 56.96 4.48)"  >
<path style="stroke: none; stroke-width: 1; stroke-dasharray: none; stroke-linecap: butt; stroke-dashoffset: 0; stroke-linejoin: miter; stroke-miterlimit: 4; fill: rgb(93,95,96); fill-rule: nonzero; opacity: 1;" vector-effect="non-scaling-stroke"  transform=" translate(-216.38, -30.5)" d="M 119.454 28 L 120.984 28 L 118.167 21.7 L 116.727 21.7 L 113.919 28 L 115.413 28 L 115.971 26.65 L 118.896 26.65 L 119.454 28 Z M 116.439 25.543 L 117.438 23.131 L 118.437 25.543 L 116.439 25.543 Z M 124.305 28.108 C 126.096 28.108 127.158 27.082 127.158 25.228 L 127.158 21.7 L 125.718 21.7 L 125.718 25.174 C 125.718 26.371 125.205 26.866 124.314 26.866 C 123.432 26.866 122.91 26.371 122.91 25.174 L 122.91 21.7 L 121.452 21.7 L 121.452 25.228 C 121.452 27.082 122.514 28.108 124.305 28.108 Z M 129.798 28 L 131.256 28 L 131.256 22.888 L 133.272 22.888 L 133.272 21.7 L 127.782 21.7 L 127.782 22.888 L 129.798 22.888 L 129.798 28 Z M 137.02 28.108 C 139 28.108 140.467 26.731 140.467 24.85 C 140.467 22.969 139 21.592 137.02 21.592 C 135.031 21.592 133.573 22.978 133.573 24.85 C 133.573 26.722 135.031 28.108 137.02 28.108 Z M 137.02 26.866 C 135.895 26.866 135.049 26.047 135.049 24.85 C 135.049 23.653 135.895 22.834 137.02 22.834 C 138.145 22.834 138.991 23.653 138.991 24.85 C 138.991 26.047 138.145 26.866 137.02 26.866 Z M 147.142 28 L 145.729 25.975 C 146.548 25.624 147.025 24.931 147.025 23.986 C 147.025 22.573 145.972 21.7 144.289 21.7 L 141.562 21.7 L 141.562 28 L 143.02 28 L 143.02 26.245 L 144.289 26.245 L 144.361 26.245 L 145.576 28 L 147.142 28 Z M 145.549 23.986 C 145.549 24.67 145.099 25.084 144.208 25.084 L 143.02 25.084 L 143.02 22.888 L 144.208 22.888 C 145.099 22.888 145.549 23.293 145.549 23.986 Z M 148.181 28 L 149.639 28 L 149.639 21.7 L 148.181 21.7 L 148.181 28 Z M 152.439 28 L 153.897 28 L 153.897 22.888 L 155.913 22.888 L 155.913 21.7 L 150.423 21.7 L 150.423 22.888 L 152.439 22.888 L 152.439 28 Z M 160.99 19.891 L 159.478 19.891 L 158.263 21.187 L 159.361 21.187 L 160.99 19.891 Z M 158.146 26.83 L 158.146 25.372 L 161.071 25.372 L 161.071 24.238 L 158.146 24.238 L 158.146 22.87 L 161.458 22.87 L 161.458 21.7 L 156.697 21.7 L 156.697 28 L 161.575 28 L 161.575 26.83 L 158.146 26.83 Z M 165.284 28 L 168.146 28 C 170.207 28 171.62 26.758 171.62 24.85 C 171.62 22.942 170.207 21.7 168.146 21.7 L 165.284 21.7 L 165.284 28 Z M 166.742 26.803 L 166.742 22.897 L 168.074 22.897 C 169.325 22.897 170.144 23.644 170.144 24.85 C 170.144 26.056 169.325 26.803 168.074 26.803 L 166.742 26.803 Z M 174.169 26.83 L 174.169 25.372 L 177.094 25.372 L 177.094 24.238 L 174.169 24.238 L 174.169 22.87 L 177.481 22.87 L 177.481 21.7 L 172.72 21.7 L 172.72 28 L 177.598 28 L 177.598 26.83 L 174.169 26.83 Z M 186.887 28 L 185.474 25.975 C 186.293 25.624 186.77 24.931 186.77 23.986 C 186.77 22.573 185.717 21.7 184.034 21.7 L 181.307 21.7 L 181.307 28 L 182.765 28 L 182.765 26.245 L 184.034 26.245 L 184.106 26.245 L 185.321 28 L 186.887 28 Z M 185.294 23.986 C 185.294 24.67 184.844 25.084 183.953 25.084 L 182.765 25.084 L 182.765 22.888 L 183.953 22.888 C 184.844 22.888 185.294 23.293 185.294 23.986 Z M 192.218 19.891 L 190.706 19.891 L 189.491 21.187 L 190.589 21.187 L 192.218 19.891 Z M 189.374 26.83 L 189.374 25.372 L 192.299 25.372 L 192.299 24.238 L 189.374 24.238 L 189.374 22.87 L 192.686 22.87 L 192.686 21.7 L 187.925 21.7 L 187.925 28 L 192.803 28 L 192.803 26.83 L 189.374 26.83 Z M 198.202 26.596 C 197.833 26.794 197.464 26.866 197.068 26.866 C 195.862 26.866 195.025 26.029 195.025 24.85 C 195.025 23.653 195.862 22.834 197.086 22.834 C 197.725 22.834 198.256 23.059 198.715 23.545 L 199.651 22.681 C 199.039 21.97 198.121 21.592 197.014 21.592 C 195.007 21.592 193.549 22.951 193.549 24.85 C 193.549 26.749 195.007 28.108 196.987 28.108 C 197.887 28.108 198.841 27.829 199.534 27.307 L 199.534 24.751 L 198.202 24.751 L 198.202 26.596 Z M 203.688 28.108 C 205.479 28.108 206.541 27.082 206.541 25.228 L 206.541 21.7 L 205.101 21.7 L 205.101 25.174 C 205.101 26.371 204.588 26.866 203.697 26.866 C 202.815 26.866 202.293 26.371 202.293 25.174 L 202.293 21.7 L 200.835 21.7 L 200.835 25.228 C 200.835 27.082 201.897 28.108 203.688 28.108 Z M 207.981 28 L 212.598 28 L 212.598 26.812 L 209.439 26.812 L 209.439 21.7 L 207.981 21.7 L 207.981 28 Z M 218.173 28 L 219.703 28 L 216.886 21.7 L 215.446 21.7 L 212.638 28 L 214.132 28 L 214.69 26.65 L 217.615 26.65 L 218.173 28 Z M 215.158 25.543 L 216.157 23.131 L 217.156 25.543 L 215.158 25.543 Z M 221.345 28 L 222.803 28 L 222.803 22.888 L 224.819 22.888 L 224.819 21.7 L 219.329 21.7 L 219.329 22.888 L 221.345 22.888 L 221.345 28 Z M 225.603 28 L 227.061 28 L 227.061 21.7 L 225.603 21.7 L 225.603 28 Z M 231.608 28.108 C 233.588 28.108 235.055 26.731 235.055 24.85 C 235.055 22.969 233.588 21.592 231.608 21.592 C 229.619 21.592 228.161 22.978 228.161 24.85 C 228.161 26.722 229.619 28.108 231.608 28.108 Z M 231.608 26.866 C 230.483 26.866 229.637 26.047 229.637 24.85 C 229.637 23.653 230.483 22.834 231.608 22.834 C 232.733 22.834 233.579 23.653 233.579 24.85 C 233.579 26.047 232.733 26.866 231.608 26.866 Z M 240.488 21.7 L 240.488 25.525 L 237.356 21.7 L 236.15 21.7 L 236.15 28 L 237.59 28 L 237.59 24.175 L 240.731 28 L 241.928 28 L 241.928 21.7 L 240.488 21.7 Z M 245.968 28 L 248.83 28 C 250.891 28 252.304 26.758 252.304 24.85 C 252.304 22.942 250.891 21.7 248.83 21.7 L 245.968 21.7 L 245.968 28 Z M 247.426 26.803 L 247.426 22.897 L 248.758 22.897 C 250.009 22.897 250.828 23.644 250.828 24.85 C 250.828 26.056 250.009 26.803 248.758 26.803 L 247.426 26.803 Z M 254.852 26.83 L 254.852 25.372 L 257.777 25.372 L 257.777 24.238 L 254.852 24.238 L 254.852 22.87 L 258.164 22.87 L 258.164 21.7 L 253.403 21.7 L 253.403 28 L 258.281 28 L 258.281 26.83 L 254.852 26.83 Z M 261.99 28 L 266.607 28 L 266.607 26.812 L 263.448 26.812 L 263.448 21.7 L 261.99 21.7 L 261.99 28 Z M 272.182 28 L 273.712 28 L 270.895 21.7 L 269.455 21.7 L 266.647 28 L 268.141 28 L 268.699 26.65 L 271.624 26.65 L 272.182 28 Z M 269.167 25.543 L 270.166 23.131 L 271.165 25.543 L 269.167 25.543 Z M 279.641 21.7 L 276.914 21.7 L 276.914 28 L 278.372 28 L 278.372 26.263 L 279.641 26.263 C 281.324 26.263 282.377 25.39 282.377 23.986 C 282.377 22.573 281.324 21.7 279.641 21.7 Z M 279.56 25.075 L 278.372 25.075 L 278.372 22.888 L 279.56 22.888 C 280.451 22.888 280.901 23.293 280.901 23.986 C 280.901 24.67 280.451 25.075 279.56 25.075 Z M 286.557 28.108 C 288.537 28.108 290.004 26.731 290.004 24.85 C 290.004 22.969 288.537 21.592 286.557 21.592 C 284.568 21.592 283.11 22.978 283.11 24.85 C 283.11 26.722 284.568 28.108 286.557 28.108 Z M 286.557 26.866 C 285.432 26.866 284.586 26.047 284.586 24.85 C 284.586 23.653 285.432 22.834 286.557 22.834 C 287.682 22.834 288.528 23.653 288.528 24.85 C 288.528 26.047 287.682 26.866 286.557 26.866 Z M 293.17 28.108 C 294.97 28.108 295.843 27.208 295.843 26.155 C 295.843 23.842 292.18 24.643 292.18 23.482 C 292.18 23.086 292.513 22.762 293.377 22.762 C 293.935 22.762 294.538 22.924 295.123 23.257 L 295.573 22.15 C 294.988 21.781 294.178 21.592 293.386 21.592 C 291.595 21.592 290.731 22.483 290.731 23.554 C 290.731 25.894 294.394 25.084 294.394 26.263 C 294.394 26.65 294.043 26.938 293.179 26.938 C 292.423 26.938 291.631 26.668 291.1 26.281 L 290.605 27.379 C 291.163 27.811 292.171 28.108 293.17 28.108 Z M 298.056 28 L 299.514 28 L 299.514 22.888 L 301.53 22.888 L 301.53 21.7 L 296.04 21.7 L 296.04 22.888 L 298.056 22.888 L 298.056 28 Z M 303.763 26.83 L 303.763 25.372 L 306.688 25.372 L 306.688 24.238 L 303.763 24.238 L 303.763 22.87 L 307.075 22.87 L 307.075 21.7 L 302.314 21.7 L 302.314 28 L 307.192 28 L 307.192 26.83 L 303.763 26.83 Z M 116.196 39.83 L 116.196 38.372 L 119.121 38.372 L 119.121 37.238 L 116.196 37.238 L 116.196 35.87 L 119.508 35.87 L 119.508 34.7 L 114.747 34.7 L 114.747 41 L 119.625 41 L 119.625 39.83 L 116.196 39.83 Z M 122.09 41 L 123.548 41 L 123.548 35.888 L 125.564 35.888 L 125.564 34.7 L 120.074 34.7 L 120.074 35.888 L 122.09 35.888 L 122.09 41 Z M 128.897 41 L 131.759 41 C 133.82 41 135.233 39.758 135.233 37.85 C 135.233 35.942 133.82 34.7 131.759 34.7 L 128.897 34.7 L 128.897 41 Z M 130.355 39.803 L 130.355 35.897 L 131.687 35.897 C 132.938 35.897 133.757 36.644 133.757 37.85 C 133.757 39.056 132.938 39.803 131.687 39.803 L 130.355 39.803 Z M 137.782 39.83 L 137.782 38.372 L 140.707 38.372 L 140.707 37.238 L 137.782 37.238 L 137.782 35.87 L 141.094 35.87 L 141.094 34.7 L 136.333 34.7 L 136.333 41 L 141.211 41 L 141.211 39.83 L 137.782 39.83 Z M 144.441 41.108 C 146.241 41.108 147.114 40.208 147.114 39.155 C 147.114 36.842 143.451 37.643 143.451 36.482 C 143.451 36.086 143.784 35.762 144.648 35.762 C 145.206 35.762 145.809 35.924 146.394 36.257 L 146.844 35.15 C 146.259 34.781 145.449 34.592 144.657 34.592 C 142.866 34.592 142.002 35.483 142.002 36.554 C 142.002 38.894 145.665 38.084 145.665 39.263 C 145.665 39.65 145.314 39.938 144.45 39.938 C 143.694 39.938 142.902 39.668 142.371 39.281 L 141.876 40.379 C 142.434 40.811 143.442 41.108 144.441 41.108 Z M 151.964 41 L 153.422 41 L 153.422 35.888 L 155.438 35.888 L 155.438 34.7 L 149.948 34.7 L 149.948 35.888 L 151.964 35.888 L 151.964 41 Z M 160.516 32.891 L 159.004 32.891 L 157.789 34.187 L 158.887 34.187 L 160.516 32.891 Z M 157.672 39.83 L 157.672 38.372 L 160.597 38.372 L 160.597 37.238 L 157.672 37.238 L 157.672 35.87 L 160.984 35.87 L 160.984 34.7 L 156.223 34.7 L 156.223 41 L 161.101 41 L 161.101 39.83 L 157.672 39.83 Z M 162.261 41 L 166.878 41 L 166.878 39.812 L 163.719 39.812 L 163.719 34.7 L 162.261 34.7 L 162.261 41 Z M 171.985 32.891 L 170.473 32.891 L 169.258 34.187 L 170.356 34.187 L 171.985 32.891 Z M 169.141 39.83 L 169.141 38.372 L 172.066 38.372 L 172.066 37.238 L 169.141 37.238 L 169.141 35.87 L 172.453 35.87 L 172.453 34.7 L 167.692 34.7 L 167.692 41 L 172.57 41 L 172.57 39.83 L 169.141 39.83 Z M 176.728 41.108 C 177.826 41.108 178.735 40.712 179.329 39.983 L 178.393 39.119 C 177.97 39.614 177.439 39.866 176.809 39.866 C 175.63 39.866 174.793 39.038 174.793 37.85 C 174.793 36.662 175.63 35.834 176.809 35.834 C 177.439 35.834 177.97 36.086 178.393 36.572 L 179.329 35.708 C 178.735 34.988 177.826 34.592 176.737 34.592 C 174.775 34.592 173.317 35.951 173.317 37.85 C 173.317 39.749 174.775 41.108 176.728 41.108 Z M 183.233 41.108 C 185.213 41.108 186.68 39.731 186.68 37.85 C 186.68 35.969 185.213 34.592 183.233 34.592 C 181.244 34.592 179.786 35.978 179.786 37.85 C 179.786 39.722 181.244 41.108 183.233 41.108 Z M 183.233 39.866 C 182.108 39.866 181.262 39.047 181.262 37.85 C 181.262 36.653 182.108 35.834 183.233 35.834 C 184.358 35.834 185.204 36.653 185.204 37.85 C 185.204 39.047 184.358 39.866 183.233 39.866 Z M 194.876 41 L 194.858 34.7 L 193.661 34.7 L 191.339 38.615 L 188.981 34.7 L 187.775 34.7 L 187.775 41 L 189.143 41 L 189.143 37.301 L 190.988 40.334 L 191.645 40.334 L 193.499 37.22 L 193.508 41 L 194.876 41 Z M 203.472 41 L 203.454 34.7 L 202.257 34.7 L 199.935 38.615 L 197.577 34.7 L 196.371 34.7 L 196.371 41 L 197.739 41 L 197.739 37.301 L 199.584 40.334 L 200.241 40.334 L 202.095 37.22 L 202.104 41 L 203.472 41 Z M 207.766 41.108 C 209.557 41.108 210.619 40.082 210.619 38.228 L 210.619 34.7 L 209.179 34.7 L 209.179 38.174 C 209.179 39.371 208.666 39.866 207.775 39.866 C 206.893 39.866 206.371 39.371 206.371 38.174 L 206.371 34.7 L 204.913 34.7 L 204.913 38.228 C 204.913 40.082 205.975 41.108 207.766 41.108 Z M 216.397 34.7 L 216.397 38.525 L 213.266 34.7 L 212.06 34.7 L 212.06 41 L 213.5 41 L 213.5 37.175 L 216.641 41 L 217.838 41 L 217.838 34.7 L 216.397 34.7 Z M 219.328 41 L 220.786 41 L 220.786 34.7 L 219.328 34.7 L 219.328 41 Z M 225.296 41.108 C 226.394 41.108 227.303 40.712 227.897 39.983 L 226.961 39.119 C 226.538 39.614 226.007 39.866 225.377 39.866 C 224.198 39.866 223.361 39.038 223.361 37.85 C 223.361 36.662 224.198 35.834 225.377 35.834 C 226.007 35.834 226.538 36.086 226.961 36.572 L 227.897 35.708 C 227.303 34.988 226.394 34.592 225.305 34.592 C 223.343 34.592 221.885 35.951 221.885 37.85 C 221.885 39.749 223.343 41.108 225.296 41.108 Z M 233.466 41 L 234.996 41 L 232.179 34.7 L 230.739 34.7 L 227.931 41 L 229.425 41 L 229.983 39.65 L 232.908 39.65 L 233.466 41 Z M 230.451 38.543 L 231.45 36.131 L 232.449 38.543 L 230.451 38.543 Z M 236.638 41 L 238.096 41 L 238.096 35.888 L 240.112 35.888 L 240.112 34.7 L 234.622 34.7 L 234.622 35.888 L 236.638 35.888 L 236.638 41 Z M 240.896 41 L 242.354 41 L 242.354 34.7 L 240.896 34.7 L 240.896 41 Z M 246.901 41.108 C 248.881 41.108 250.348 39.731 250.348 37.85 C 250.348 35.969 248.881 34.592 246.901 34.592 C 244.912 34.592 243.454 35.978 243.454 37.85 C 243.454 39.722 244.912 41.108 246.901 41.108 Z M 246.901 39.866 C 245.776 39.866 244.93 39.047 244.93 37.85 C 244.93 36.653 245.776 35.834 246.901 35.834 C 248.026 35.834 248.872 36.653 248.872 37.85 C 248.872 39.047 248.026 39.866 246.901 39.866 Z M 255.781 34.7 L 255.781 38.525 L 252.649 34.7 L 251.443 34.7 L 251.443 41 L 252.883 41 L 252.883 37.175 L 256.024 41 L 257.221 41 L 257.221 34.7 L 255.781 34.7 Z M 260.782 41.108 C 262.582 41.108 263.455 40.208 263.455 39.155 C 263.455 36.842 259.792 37.643 259.792 36.482 C 259.792 36.086 260.125 35.762 260.989 35.762 C 261.547 35.762 262.15 35.924 262.735 36.257 L 263.185 35.15 C 262.6 34.781 261.79 34.592 260.998 34.592 C 259.207 34.592 258.343 35.483 258.343 36.554 C 258.343 38.894 262.006 38.084 262.006 39.263 C 262.006 39.65 261.655 39.938 260.791 39.938 C 260.035 39.938 259.243 39.668 258.712 39.281 L 258.217 40.379 C 258.775 40.811 259.783 41.108 260.782 41.108 Z M 267 41 L 269.862 41 C 271.923 41 273.336 39.758 273.336 37.85 C 273.336 35.942 271.923 34.7 269.862 34.7 L 267 34.7 L 267 41 Z M 268.458 39.803 L 268.458 35.897 L 269.79 35.897 C 271.041 35.897 271.86 36.644 271.86 37.85 C 271.86 39.056 271.041 39.803 269.79 39.803 L 268.458 39.803 Z M 277.234 41.108 C 279.025 41.108 280.087 40.082 280.087 38.228 L 280.087 34.7 L 278.647 34.7 L 278.647 38.174 C 278.647 39.371 278.134 39.866 277.243 39.866 C 276.361 39.866 275.839 39.371 275.839 38.174 L 275.839 34.7 L 274.381 34.7 L 274.381 38.228 C 274.381 40.082 275.443 41.108 277.234 41.108 Z M 287.092 41.108 C 288.19 41.108 289.099 40.712 289.693 39.983 L 288.757 39.119 C 288.334 39.614 287.803 39.866 287.173 39.866 C 285.994 39.866 285.157 39.038 285.157 37.85 C 285.157 36.662 285.994 35.834 287.173 35.834 C 287.803 35.834 288.334 36.086 288.757 36.572 L 289.693 35.708 C 289.099 34.988 288.19 34.592 287.101 34.592 C 285.139 34.592 283.681 35.951 283.681 37.85 C 283.681 39.749 285.139 41.108 287.092 41.108 Z M 293.597 41.108 C 295.577 41.108 297.044 39.731 297.044 37.85 C 297.044 35.969 295.577 34.592 293.597 34.592 C 291.608 34.592 290.15 35.978 290.15 37.85 C 290.15 39.722 291.608 41.108 293.597 41.108 Z M 293.597 39.866 C 292.472 39.866 291.626 39.047 291.626 37.85 C 291.626 36.653 292.472 35.834 293.597 35.834 C 294.722 35.834 295.568 36.653 295.568 37.85 C 295.568 39.047 294.722 39.866 293.597 39.866 Z M 302.478 34.7 L 302.478 38.525 L 299.346 34.7 L 298.14 34.7 L 298.14 41 L 299.58 41 L 299.58 37.175 L 302.721 41 L 303.918 41 L 303.918 34.7 L 302.478 34.7 Z M 309.665 39.596 C 309.296 39.794 308.927 39.866 308.531 39.866 C 307.325 39.866 306.488 39.029 306.488 37.85 C 306.488 36.653 307.325 35.834 308.549 35.834 C 309.188 35.834 309.719 36.059 310.178 36.545 L 311.114 35.681 C 310.502 34.97 309.584 34.592 308.477 34.592 C 306.47 34.592 305.012 35.951 305.012 37.85 C 305.012 39.749 306.47 41.108 308.45 41.108 C 309.35 41.108 310.304 40.829 310.997 40.307 L 310.997 37.751 L 309.665 37.751 L 309.665 39.596 Z M 315.402 41.108 C 317.382 41.108 318.849 39.731 318.849 37.85 C 318.849 35.969 317.382 34.592 315.402 34.592 C 313.413 34.592 311.955 35.978 311.955 37.85 C 311.955 39.722 313.413 41.108 315.402 41.108 Z M 315.402 39.866 C 314.277 39.866 313.431 39.047 313.431 37.85 C 313.431 36.653 314.277 35.834 315.402 35.834 C 316.527 35.834 317.373 36.653 317.373 37.85 C 317.373 39.047 316.527 39.866 315.402 39.866 Z" stroke-linecap="round" />
</g>
		<g transform="matrix(1 0 0 1 -90.86 14)"  >
<path style="stroke: none; stroke-width: 1; stroke-dasharray: none; stroke-linecap: butt; stroke-dashoffset: 0; stroke-linejoin: miter; stroke-miterlimit: 4; fill: rgb(64,103,180); fill-rule: nonzero; opacity: 1;" vector-effect="non-scaling-stroke"  transform=" translate(-68.56, -40.02)" d="M 64.5115 43.3598 C 64.5115 44.9713 64.5446 46.48 64.4879 47.9793 C 64.4543 48.3896 64.2753 48.7751 63.9823 49.0676 C 62.9097 50.0672 61.7757 51.0013 60.5709 52.0429 C 60.5333 51.8281 60.508 51.6114 60.4953 51.3937 C 60.4953 45.7357 60.4953 40.0778 60.4953 34.4198 C 60.445 32.9956 60.9118 31.6005 61.8113 30.4869 C 62.7108 29.3732 63.9837 28.6144 65.3998 28.3477 C 67.4783 27.8735 69.6387 27.8735 71.7171 28.3477 C 74.4718 28.9782 76.272 30.912 76.5319 33.6818 C 76.6736 35.1872 76.6736 36.7024 76.5319 38.2079 C 76.2484 41.2112 74.1977 43.2057 71.0462 43.6961 C 68.8687 44.0567 66.6376 43.9387 64.5115 43.3505 L 64.5115 43.3598 Z M 72.5912 36.0219 C 72.5912 36.0219 72.5912 34.7421 72.5393 34.1022 C 72.4448 32.4814 71.7077 31.5285 70.1768 31.351 C 69.0225 31.2466 67.8604 31.2592 66.7086 31.3884 C 66.1782 31.4127 65.6764 31.6331 65.3027 32.006 C 64.9289 32.3789 64.7106 32.877 64.6911 33.4015 C 64.5611 35.079 64.5611 36.7639 64.6911 38.4414 C 64.7025 38.9799 64.9209 39.4939 65.3017 39.879 C 65.6826 40.2642 66.1974 40.4917 66.7417 40.5153 C 67.8934 40.6445 69.0555 40.657 70.2099 40.5526 C 71.6274 40.3985 72.2369 39.7212 72.4731 38.3153 C 72.5631 37.554 72.6105 36.7884 72.6149 36.0219" stroke-linecap="round" />
</g>
		<g transform="matrix(1 0 0 1 -62.06 9.96)"  >
<path style="stroke: none; stroke-width: 1; stroke-dasharray: none; stroke-linecap: butt; stroke-dashoffset: 0; stroke-linejoin: miter; stroke-miterlimit: 4; fill: rgb(64,103,180); fill-rule: nonzero; opacity: 1;" vector-effect="non-scaling-stroke"  transform=" translate(-97.37, -35.98)" d="M 101.414 37.5867 L 105.402 37.5867 C 105.487 39.7773 104.159 42.2108 102.052 43.0562 C 100.589 43.6642 99.0191 43.9774 97.4328 43.9774 C 95.8466 43.9774 94.2763 43.6642 92.8142 43.0562 C 90.7399 42.2061 89.6295 40.4452 89.4358 38.2593 C 89.2917 36.729 89.2917 35.1888 89.4358 33.6585 C 89.7146 30.7625 91.6235 28.8381 94.6333 28.2636 C 96.6224 27.8702 98.674 27.9052 100.648 28.3664 C 102.01 28.6581 103.227 29.4099 104.09 30.4925 C 104.952 31.5751 105.406 32.9208 105.373 34.2984 L 101.385 34.2984 C 101.385 34.2984 101.229 31.3557 99.0228 31.2997 C 98.3991 31.2997 96.4619 31.2997 95.7909 31.2997 C 94.1797 31.5145 93.6269 32.1544 93.4851 33.7472 C 93.3457 35.2496 93.3457 36.7615 93.4851 38.2639 C 93.6221 39.7212 94.3167 40.3938 95.7578 40.5667 C 96.8358 40.6974 97.9259 40.6974 99.0039 40.5667 C 100.492 40.3798 101.083 39.6792 101.324 38.1985 C 101.36 37.9982 101.378 37.7949 101.376 37.5913" stroke-linecap="round" />
</g>
		<g transform="matrix(1 0 0 1 -76.45 6.81)"  >
<path style="stroke: none; stroke-width: 1; stroke-dasharray: none; stroke-linecap: butt; stroke-dashoffset: 0; stroke-linejoin: miter; stroke-miterlimit: 4; fill: rgb(64,103,180); fill-rule: nonzero; opacity: 1;" vector-effect="non-scaling-stroke"  transform=" translate(-82.97, -32.83)" d="M 82.9863 21.6777 L 82.9863 27.988 L 85.1645 27.988 C 85.1645 27.988 86.582 30.6084 87.0025 31.2063 L 82.9863 31.2063 L 82.9863 32.4907 C 82.9863 34.0788 82.9863 35.6669 82.9863 37.255 C 82.9863 39.6605 83.8415 40.5526 86.2607 40.6834 C 86.4875 40.6834 86.7096 40.7255 86.9694 40.7535 L 86.9694 43.7615 C 83.317 44.8218 79.0645 41.7998 78.9842 37.9603 C 78.885 33.3548 78.9511 28.7447 78.9606 24.1346 C 78.9576 24.0281 78.9776 23.9223 79.0191 23.8241 C 79.0607 23.7258 79.1229 23.6374 79.2015 23.5647 C 80.4111 22.9342 81.6396 22.3503 82.9815 21.6964" stroke-linecap="round" />
</g>
		<g transform="matrix(1 0 0 1 -105.43 10.06)"  >
<path style="stroke: none; stroke-width: 1; stroke-dasharray: none; stroke-linecap: butt; stroke-dashoffset: 0; stroke-linejoin: miter; stroke-miterlimit: 4; fill: rgb(64,103,180); fill-rule: nonzero; opacity: 1;" vector-effect="non-scaling-stroke"  transform=" translate(-54, -36.08)" d="M 57.906 27.988 L 57.906 30.926 C 57.2643 30.8763 56.6198 30.8763 55.9782 30.926 C 54.3528 31.1596 53.6818 31.8929 53.6582 33.5604 C 53.6298 35.5035 53.6582 40.0155 53.6582 40.0155 C 53.6582 40.0155 51.2059 42.9628 50.0861 44.1913 L 50.0861 34.0275 C 50.0861 30.5664 52.0422 28.4224 55.5387 28.0674 C 56.1577 28.0067 57.9012 27.9694 57.9012 27.9694" stroke-linecap="round" />
</g>
		<g transform="matrix(1 0 0 1 -132.16 -2.29)"  >
<path style="stroke: none; stroke-width: 1; stroke-dasharray: none; stroke-linecap: butt; stroke-dashoffset: 0; stroke-linejoin: miter; stroke-miterlimit: 4; fill: rgb(204,0,43); fill-rule: nonzero; opacity: 1;" vector-effect="non-scaling-stroke"  transform=" translate(-27.26, -23.74)" d="M 53.4975 3.78836 C 53.3417 3.68412 53.1735 3.5994 52.9966 3.53614 C 52.7548 3.45462 52.5009 3.41358 52.2454 3.4147 C 51.7107 3.41611 51.1929 3.59965 50.7792 3.9344 C 50.3655 4.26914 50.0811 4.73463 49.974 5.25243 C 49.8669 5.77024 49.9436 6.30871 50.1913 6.77712 C 50.4389 7.24553 50.8423 7.61525 51.3335 7.82399 C 34.2809 41.3561 -0.225687 44.0418 0.00111253 44.0605 C 16.9591 43.1544 36.3836 38.4835 51.5035 8.47323 L 51.7587 7.96411 C 51.9144 7.99433 52.0726 8.00997 52.2312 8.01082 C 52.7263 8.00397 53.2064 7.841 53.6013 7.54565 C 53.9962 7.2503 54.2854 6.838 54.4267 6.36883 C 54.568 5.89967 54.5541 5.39815 54.387 4.93735 C 54.2198 4.47655 53.9082 4.08055 53.4975 3.80705" stroke-linecap="round" />
</g>
		<g transform="matrix(1 0 0 1 -139.72 15.77)"  >
<path style="stroke: none; stroke-width: 1; stroke-dasharray: none; stroke-linecap: butt; stroke-dashoffset: 0; stroke-linejoin: miter; stroke-miterlimit: 4; fill: rgb(64,103,180); fill-rule: nonzero; opacity: 1;" vector-effect="non-scaling-stroke"  transform=" translate(-19.7, -41.79)" d="M 18.7027 41.3233 L 16.0189 44.1258 C 19.7564 42.9347 20.966 42.8507 20.966 42.8507 L 23.3899 39.4503 C 21.8613 40.1529 20.2968 40.7765 18.7027 41.3186" stroke-linecap="round" />
</g>
		<g transform="matrix(1 0 0 1 -117.55 10.61)"  >
<path style="stroke: none; stroke-width: 1; stroke-dasharray: none; stroke-linecap: butt; stroke-dashoffset: 0; stroke-linejoin: miter; stroke-miterlimit: 4; fill: rgb(64,103,180); fill-rule: nonzero; opacity: 1;" vector-effect="non-scaling-stroke"  transform=" translate(-41.87, -36.62)" d="M 36.0386 30.9634 C 36.4166 32.0563 38.0987 36.3956 41.9307 42.0006 C 41.9307 42.0006 43.7073 42.2902 47.7094 44.1305 C 42.9608 39.7166 41.4251 36.4423 37.957 29.1184 C 37.338 29.7396 36.6623 30.3935 36.0386 30.9867" stroke-linecap="round" />
</g>
		<g transform="matrix(1 0 0 1 -131.04 -7.24)"  >
<path style="stroke: none; stroke-width: 1; stroke-dasharray: none; stroke-linecap: butt; stroke-dashoffset: 0; stroke-linejoin: miter; stroke-miterlimit: 4; fill: rgb(64,103,180); fill-rule: nonzero; opacity: 1;" vector-effect="non-scaling-stroke"  transform=" translate(-28.38, -18.78)" d="M 26.0736 34.3311 C 25.9508 33.9808 25.6956 33.2521 25.6011 33.1073 C 25.6011 33.1073 26.3666 31.65 26.7398 30.8513 C 26.7398 30.8513 27.1178 31.949 27.6281 33.3642 C 28.3841 32.8971 29.1449 32.3833 29.9103 31.8555 C 29.0787 29.5201 28.644 28.2356 28.3558 27.1847 C 28.3558 27.1847 29.1307 25.4098 29.5512 24.2934 C 29.9812 25.9936 31.5971 30.5897 31.5971 30.5897 L 32.3295 30.1227 L 33.4635 29.2399 C 32.3728 26.2538 31.481 23.2003 30.7939 20.099 C 31.0868 19.034 31.3798 18.0251 31.6916 16.6519 C 32.5988 20.7436 33.3029 23.9805 34.8574 28.1048 C 35.5189 27.5537 36.1772 26.9807 36.8324 26.386 C 35.2782 22.2714 34.094 18.0294 33.2934 13.7093 C 32.8445 11.5505 32.5289 9.36671 32.3484 7.17005 C 32.1122 4.70851 32.0649 2.85885 32.0649 1.84994 C 32.0271 1.26608 31.9893 0.677554 31.9468 0.0983679 C 31.5924 -0.0464287 31.4034 -0.0184035 31.2947 0.0983679 C 31.1601 7.20596 29.9807 14.2564 27.7935 21.0285 C 26.0399 26.9038 23.3885 32.4797 19.9311 37.5633 L 20.3516 37.3905 C 22.1991 36.5077 24.1316 35.4941 26.0736 34.3311 Z" stroke-linecap="round" />
</g>
</g>
</g>
</svg>